<svg width="233" height="62" viewBox="0 0 233 62" fill="none" xmlns="http://www.w3.org/2000/svg">
<g filter="url(#filter0_d)">
<path d="M10.0697 51.1361C6.758 51.0948 4.27026 50.4158 2.60653 49.099C0.990789 47.7828 0.195472 46.1167 0.220574 44.1009C0.237309 42.757 0.635026 41.6579 1.41372 40.8035C2.19302 39.9011 3.27862 39.4586 4.67051 39.4759C5.87041 39.4909 6.80156 39.8865 7.46395 40.6628C8.12633 41.4391 8.44975 42.4512 8.43421 43.6991C8.42226 44.6591 8.17242 45.448 7.68468 46.066C7.19755 46.636 6.68881 47.0137 6.15846 47.1991L6.15577 47.4151C6.63394 47.565 7.2084 47.6922 7.87915 47.7965C8.5499 47.9009 9.29325 47.9582 10.1092 47.9683C14.8128 48.0269 17.2002 45.2004 17.2713 39.4888L17.7205 3.41964L10.881 3.33447L10.9222 0.0227271L29.3528 0.252234L29.3116 3.56398L23.912 3.49674L23.47 38.99C23.4186 43.1177 22.2042 46.1988 19.8266 48.2333C17.4977 50.2205 14.2454 51.1881 10.0697 51.1361ZM50.5217 48.1115C52.2975 48.1336 53.837 47.8648 55.1401 47.305C56.4917 46.6978 57.5821 45.8713 58.4112 44.8255C59.2889 43.7324 59.9287 42.4682 60.3306 41.0331C60.7811 39.5506 61.0171 37.9454 61.0386 36.2176L61.1354 28.4422C61.1569 26.7143 60.9607 25.1277 60.5466 23.6825C60.1812 22.1898 59.5731 20.9101 58.7223 19.8434C57.9201 18.7294 56.8506 17.876 55.5139 17.2833C54.2258 16.6432 52.6938 16.3121 50.9179 16.29C49.0941 16.2673 47.5303 16.5598 46.2266 17.1676C44.9236 17.7275 43.8332 18.554 42.9555 19.6471C42.1264 20.6929 41.4866 21.957 41.0361 23.4395C40.6342 24.8746 40.4225 26.4561 40.401 28.184L40.3042 35.9594C40.2827 37.6872 40.4546 39.2975 40.8201 40.7902C41.2341 42.2354 41.8422 43.5151 42.6444 44.6292C43.4952 45.6959 44.5646 46.5492 45.8528 47.1893C47.1415 47.7814 48.6978 48.0888 50.5217 48.1115ZM50.4777 51.6393C47.9339 51.6076 45.6118 51.1226 43.5113 50.1844C41.4108 49.2462 39.6271 47.9279 38.1601 46.2295C36.6938 44.4831 35.5673 42.4289 34.7806 40.0669C33.9946 37.6569 33.6201 34.9641 33.6571 31.9883C33.6936 29.0605 34.1347 26.4018 34.9805 24.0121C35.8263 21.6225 37.0037 19.597 38.5125 17.9357C40.0219 16.2263 41.8382 14.9288 43.9614 14.0432C46.0845 13.1576 48.418 12.7306 50.9618 12.7623C53.5056 12.7939 55.8278 13.2789 57.9283 14.2171C60.0287 15.1554 61.8122 16.4977 63.2785 18.2441C64.7455 19.9425 65.872 21.9966 66.6581 24.4066C67.4441 26.8166 67.8189 29.4855 67.7825 32.4132C67.7454 35.389 67.304 38.0717 66.4582 40.4614C65.6129 42.803 64.4356 44.8285 62.9262 46.5379C61.4174 48.1992 59.6014 49.4727 57.4782 50.3583C55.355 51.244 53.0215 51.6709 50.4777 51.6393ZM73.3496 17.2174L69.6059 17.1708L69.6471 13.859L85.0539 14.0509L85.0127 17.3626L79.8291 17.2981L89.4974 44.6366L89.7854 44.6402L99.8436 17.5473L94.66 17.4827L94.7012 14.171L107.804 14.3342L107.763 17.6459L104.019 17.5993L90.5669 51.2744L86.0312 51.2179L73.3496 17.2174ZM120.109 52.5063C116.653 52.4633 113.952 51.5416 112.007 49.7412C110.109 47.8935 109.18 45.4097 109.219 42.2899C109.241 40.5141 109.549 38.9578 110.141 37.6211C110.735 36.2363 111.685 35.0961 112.992 34.2003C114.347 33.3051 116.084 32.6307 118.202 32.177C120.32 31.7233 122.89 31.5153 125.914 31.553L131.242 31.6193L131.31 26.1478C131.346 23.22 130.654 20.9792 129.233 19.4254C127.861 17.8242 125.759 17.0059 122.927 16.9707C121.68 16.9551 120.526 17.0608 119.467 17.2876C118.409 17.4665 117.541 17.7437 116.865 18.1193L116.863 18.2633C117.387 18.5578 117.886 18.9961 118.359 19.578C118.879 20.1605 119.133 20.9797 119.12 22.0357C119.105 23.2836 118.732 24.263 118.003 24.974C117.275 25.637 116.311 25.961 115.111 25.946C113.959 25.9317 113.003 25.5838 112.244 24.9023C111.533 24.1734 111.186 23.113 111.203 21.7211C111.216 20.6651 111.541 19.6611 112.177 18.7089C112.813 17.7088 113.712 16.8319 114.874 16.0783C116.035 15.3247 117.459 14.7424 119.144 14.3314C120.878 13.8729 122.825 13.6571 124.984 13.684C128.872 13.7324 131.883 14.778 134.018 16.8208C136.201 18.8641 137.27 21.7096 137.224 25.3573L136.933 48.7555L142.332 48.8228L142.301 51.3426C141.768 51.72 141.044 52.047 140.129 52.3236C139.261 52.6008 138.275 52.7326 137.171 52.7188C135.3 52.6955 133.866 52.1496 132.871 51.0811C131.877 50.0127 131.39 48.5905 131.412 46.8146L131.419 46.3107L131.059 46.3062C130.713 47.118 130.247 47.9042 129.661 48.665C129.124 49.4263 128.419 50.0896 127.548 50.6548C126.677 51.22 125.616 51.6628 124.364 51.9833C123.159 52.3523 121.741 52.5267 120.109 52.5063ZM122.678 48.578C124.982 48.6067 126.957 48.0553 128.603 46.9237C130.25 45.7441 131.088 43.9304 131.119 41.4826L131.206 34.4991L126.526 34.4408C124.462 34.4151 122.732 34.5616 121.336 34.8803C119.941 35.1509 118.831 35.5931 118.008 36.2069C117.184 36.7727 116.575 37.4852 116.181 38.3443C115.834 39.2041 115.653 40.2099 115.639 41.3618L115.62 42.8737C115.598 44.6976 116.204 46.0972 117.44 47.0727C118.676 48.0481 120.422 48.5499 122.678 48.578ZM147.367 48.6694L152.695 48.7358L153.058 19.578L147.742 18.5758L147.772 16.128L158.887 14.1062L158.806 20.5857L159.094 20.5893C159.391 19.8729 159.832 19.1344 160.418 18.3736C161.051 17.6134 161.804 16.9267 162.675 16.3135C163.595 15.7009 164.657 15.2101 165.862 14.8411C167.067 14.4241 168.39 14.2245 169.83 14.2425C174.293 14.2981 177.47 15.5137 179.361 17.8894C181.3 20.2178 182.241 23.7097 182.183 28.3654L181.925 49.0998L187.252 49.1661L187.211 52.4779L170.652 52.2717L170.693 48.9599L176.021 49.0263L176.273 28.7958C176.359 21.8844 173.498 18.3925 167.691 18.3202C166.635 18.307 165.577 18.4378 164.518 18.7127C163.506 18.9881 162.564 19.4324 161.693 20.0456C160.869 20.6594 160.188 21.419 159.648 22.3243C159.157 23.2303 158.904 24.3072 158.888 25.5551L158.598 48.8093L163.926 48.8756L163.885 52.1874L147.326 51.9812L147.367 48.6694ZM208.703 53.6096C206.063 53.5767 203.693 53.0911 201.592 52.1529C199.541 51.1673 197.805 49.8256 196.386 48.1278C194.967 46.43 193.889 44.3764 193.151 41.967C192.413 39.5576 192.062 36.889 192.098 33.9613C192.134 31.0815 192.575 28.4708 193.42 26.1291C194.314 23.7401 195.491 21.6906 196.953 19.9806C198.462 18.2713 200.23 16.9732 202.258 16.0864C204.285 15.1516 206.499 14.6991 208.899 14.729C211.347 14.7595 213.525 15.2186 215.434 16.1065C217.343 16.9943 218.936 18.2382 220.212 19.8382C221.537 21.3909 222.546 23.2516 223.239 25.4204C223.932 27.5892 224.263 29.9455 224.231 32.4893L224.21 34.1451L198.652 33.8269L198.629 35.6987C198.578 39.7784 199.546 43.0067 201.533 45.3836C203.567 47.7612 206.288 48.9711 209.696 49.0136C212.672 49.0506 215.031 48.48 216.774 47.3016C218.565 46.0758 219.977 44.4852 221.01 42.5299L223.367 44.0714C222.871 45.3133 222.184 46.5289 221.305 47.718C220.475 48.8598 219.454 49.8791 218.243 50.7761C217.032 51.6251 215.632 52.3037 214.041 52.812C212.45 53.3682 210.671 53.6341 208.703 53.6096ZM198.694 30.5151L218.06 30.7563L218.069 30.0363C218.09 28.3565 217.918 26.7942 217.551 25.3495C217.233 23.9055 216.697 22.6507 215.942 21.5852C215.187 20.5197 214.214 19.6915 213.021 19.1006C211.877 18.4623 210.489 18.133 208.857 18.1127C207.225 18.0924 205.782 18.3624 204.526 18.9229C203.271 19.4833 202.205 20.2861 201.328 21.3312C200.499 22.377 199.86 23.6171 199.41 25.0516C198.96 26.4381 198.725 27.9713 198.704 29.6512L198.694 30.5151Z" fill="url(#paint0_angular)"/>
</g>
<defs>
<filter id="filter0_d" x="0.219998" y="0.0229492" width="232.013" height="61.5884" filterUnits="userSpaceOnUse" color-interpolation-filters="sRGB">
<feFlood flood-opacity="0" result="BackgroundImageFix"/>
<feColorMatrix in="SourceAlpha" type="matrix" values="0 0 0 0 0 0 0 0 0 0 0 0 0 0 0 0 0 0 127 0"/>
<feOffset dx="6" dy="6"/>
<feGaussianBlur stdDeviation="1"/>
<feColorMatrix type="matrix" values="0 0 0 0 0 0 0 0 0 0 0 0 0 0 0 0 0 0 0.13 0"/>
<feBlend mode="normal" in2="BackgroundImageFix" result="effect1_dropShadow"/>
<feBlend mode="normal" in="SourceGraphic" in2="effect1_dropShadow" result="shape"/>
</filter>
<radialGradient id="paint0_angular" cx="0" cy="0" r="1" gradientUnits="userSpaceOnUse" gradientTransform="translate(113.483 24.4944) rotate(90.7134) scale(124.937 207.089)">
<stop stop-color="#044E53" stop-opacity="0.86"/>
<stop offset="1" stop-color="#3EA3AA" stop-opacity="0.86"/>
</radialGradient>
</defs>
</svg>
