<svg width="322" height="437" viewBox="0 0 322 437" fill="none" xmlns="http://www.w3.org/2000/svg">
<g filter="url(#filter0_d)">
<g filter="url(#filter1_b)">
<path d="M4.01476 0V133.629H26.4135V23.0244H295.601V267.375C295.601 285.545 292.12 303.536 285.355 320.323C278.591 337.109 268.677 352.362 256.178 365.209C243.679 378.057 228.841 388.248 212.511 395.203C196.18 402.154 178.678 405.734 161.002 405.734C143.326 405.734 125.823 402.154 109.493 395.203C93.1626 388.248 78.3244 378.057 65.8257 365.209C53.3271 352.362 43.4126 337.109 36.6482 320.323C29.884 303.536 26.4024 285.545 26.4024 267.375V248.23H110.812V267.375C110.812 281.052 116.098 294.169 125.506 303.839C134.914 313.51 147.674 318.943 160.98 318.943C174.285 318.943 187.045 313.51 196.453 303.839C205.861 294.169 211.147 281.052 211.147 267.375V109.811H110.823V133.629H188.01V267.375C188.01 274.739 185.164 281.801 180.098 287.008C175.032 292.215 168.162 295.141 160.998 295.141C153.834 295.141 146.964 292.215 141.898 287.008C136.833 281.801 133.987 274.739 133.987 267.375V224.394H26.3987H4V267.364C4 310.166 20.5411 351.214 49.9841 381.479C79.4275 411.747 119.361 428.75 161 428.75C202.639 428.75 242.573 411.747 272.016 381.479C301.459 351.214 318 310.166 318 267.364V0H4.01476Z" fill="#3EA3AA" fill-opacity="0.86"/>
<g filter="url(#filter2_f)">
<path d="M161.031 338.771C142.609 338.756 124.945 331.229 111.916 317.842C98.8869 304.454 91.5568 286.3 91.5343 267.364H68.4043C68.4043 292.612 78.1615 316.826 95.5298 334.679C112.898 352.532 136.454 362.562 161.017 362.562C185.579 362.562 209.135 352.532 226.503 334.679C243.872 316.826 253.629 292.612 253.629 267.364V66.1613H68.4043V133.606H91.5343V89.9487H230.466V267.348C230.454 286.278 223.136 304.431 210.119 317.821C197.101 331.211 179.447 338.746 161.031 338.771Z" fill="#3EA3AA"/>
</g>
<g filter="url(#filter3_d)">
<path d="M139.819 174.04C139.819 171.64 140.329 169.45 141.349 167.47C142.369 165.49 143.779 163.78 145.579 162.34C147.379 160.9 149.539 159.79 152.059 159.01C154.579 158.23 157.339 157.84 160.339 157.84C163.339 157.84 166.099 158.2 168.619 158.92C171.139 159.64 173.299 160.66 175.099 161.98C176.899 163.3 178.309 164.92 179.329 166.84C180.349 168.76 180.859 170.92 180.859 173.32C180.859 175.96 180.319 178.27 179.239 180.25C178.159 182.23 176.659 183.88 174.739 185.2C177.019 186.76 178.879 188.62 180.319 190.78C181.759 192.88 182.479 195.73 182.479 199.33C182.479 201.73 181.969 203.92 180.949 205.9C179.929 207.88 178.459 209.59 176.539 211.03C174.619 212.47 172.309 213.58 169.609 214.36C166.909 215.14 163.879 215.53 160.519 215.53C157.159 215.53 154.129 215.14 151.429 214.36C148.729 213.58 146.419 212.47 144.499 211.03C142.639 209.59 141.169 207.88 140.089 205.9C139.069 203.92 138.559 201.73 138.559 199.33C138.559 196.09 139.249 193.39 140.629 191.23C142.069 189.07 143.749 187.39 145.669 186.19C144.049 184.87 142.669 183.31 141.529 181.51C140.389 179.65 139.819 177.16 139.819 174.04ZM153.949 197.98C153.949 199.84 154.549 201.31 155.749 202.39C157.009 203.47 158.599 204.01 160.519 204.01C162.439 204.01 163.999 203.47 165.199 202.39C166.459 201.25 167.089 199.78 167.089 197.98C167.089 196.24 166.549 194.8 165.469 193.66C164.449 192.46 163.039 191.53 161.239 190.87C158.599 191.47 156.709 192.4 155.569 193.66C154.489 194.86 153.949 196.3 153.949 197.98ZM165.829 174.58C165.829 172.96 165.349 171.67 164.389 170.71C163.429 169.75 162.079 169.27 160.339 169.27C158.599 169.27 157.249 169.75 156.289 170.71C155.329 171.67 154.849 172.93 154.849 174.49C154.849 176.05 155.329 177.31 156.289 178.27C157.309 179.23 158.479 180.01 159.799 180.61C161.899 180.13 163.429 179.35 164.389 178.27C165.349 177.19 165.829 175.96 165.829 174.58Z" fill="#3EA3AA"/>
</g>
</g>
</g>
<defs>
<filter id="filter0_d" x="0" y="0" width="322" height="436.75" filterUnits="userSpaceOnUse" color-interpolation-filters="sRGB">
<feFlood flood-opacity="0" result="BackgroundImageFix"/>
<feColorMatrix in="SourceAlpha" type="matrix" values="0 0 0 0 0 0 0 0 0 0 0 0 0 0 0 0 0 0 127 0"/>
<feOffset dy="4"/>
<feGaussianBlur stdDeviation="2"/>
<feColorMatrix type="matrix" values="0 0 0 0 0 0 0 0 0 0 0 0 0 0 0 0 0 0 0.25 0"/>
<feBlend mode="normal" in2="BackgroundImageFix" result="effect1_dropShadow"/>
<feBlend mode="normal" in="SourceGraphic" in2="effect1_dropShadow" result="shape"/>
</filter>
<filter id="filter1_b" x="0" y="-4" width="322" height="436.75" filterUnits="userSpaceOnUse" color-interpolation-filters="sRGB">
<feFlood flood-opacity="0" result="BackgroundImageFix"/>
<feGaussianBlur in="BackgroundImage" stdDeviation="2"/>
<feComposite in2="SourceAlpha" operator="in" result="effect1_backgroundBlur"/>
<feBlend mode="normal" in="SourceGraphic" in2="effect1_backgroundBlur" result="shape"/>
</filter>
<filter id="filter2_f" x="64.4043" y="62.1613" width="193.225" height="304.401" filterUnits="userSpaceOnUse" color-interpolation-filters="sRGB">
<feFlood flood-opacity="0" result="BackgroundImageFix"/>
<feBlend mode="normal" in="SourceGraphic" in2="BackgroundImageFix" result="shape"/>
<feGaussianBlur stdDeviation="2" result="effect1_foregroundBlur"/>
</filter>
<filter id="filter3_d" x="134.559" y="157.84" width="51.92" height="65.69" filterUnits="userSpaceOnUse" color-interpolation-filters="sRGB">
<feFlood flood-opacity="0" result="BackgroundImageFix"/>
<feColorMatrix in="SourceAlpha" type="matrix" values="0 0 0 0 0 0 0 0 0 0 0 0 0 0 0 0 0 0 127 0"/>
<feOffset dy="4"/>
<feGaussianBlur stdDeviation="2"/>
<feColorMatrix type="matrix" values="0 0 0 0 0 0 0 0 0 0 0 0 0 0 0 0 0 0 0.25 0"/>
<feBlend mode="normal" in2="BackgroundImageFix" result="effect1_dropShadow"/>
<feBlend mode="normal" in="SourceGraphic" in2="effect1_dropShadow" result="shape"/>
</filter>
</defs>
</svg>
